<svg width="246" height="63" viewBox="0 0 246 63" fill="none" xmlns="http://www.w3.org/2000/svg">
<path d="M40.484 31.3C41.782 30.838 42.552 29.408 42.552 28.022C42.552 25.58 40.66 24.04 37.404 24.04H30.32V39H37.844C41.21 39 43.212 37.328 43.212 34.842C43.212 33.236 42.31 31.696 40.484 31.3ZM36.832 27.076C38.262 27.076 39.01 27.582 39.01 28.528C39.01 29.496 38.24 30.2 36.832 30.2H34.038V27.076H36.832ZM37.36 35.92H34.038V32.906H37.426C38.812 32.906 39.582 33.434 39.582 34.358C39.582 35.238 38.9 35.92 37.36 35.92ZM55.5748 33.302C55.5748 30.068 53.1988 28.044 50.0088 28.044C46.7088 28.044 44.4428 30.42 44.4428 33.654C44.4428 36.91 46.7748 39.286 50.2728 39.286C52.7808 39.286 54.7608 37.988 55.3988 35.898H51.7908C51.4608 36.294 50.9988 36.47 50.2068 36.47C48.7548 36.47 48.0288 35.612 47.7868 34.512H55.5088C55.5748 34.094 55.5748 33.72 55.5748 33.302ZM50.0968 30.684C51.3068 30.684 52.0768 31.212 52.2528 32.466H47.8308C48.1168 31.388 48.8428 30.684 50.0968 30.684ZM59.8942 35.348L56.7262 35.326C56.9682 38.164 59.2342 39.286 61.9842 39.286C64.7782 39.286 66.9782 38.186 66.9782 35.722C66.9782 33.83 65.6362 32.862 63.6562 32.488L61.6762 32.158C60.8182 32.004 60.5542 31.674 60.5542 31.3C60.5542 30.904 60.9722 30.574 61.8962 30.574C62.8862 30.574 63.6562 30.926 63.7222 31.718H66.8682C66.7142 28.902 64.4262 28.044 61.8962 28.044C59.0582 28.044 57.1442 29.364 57.1442 31.608C57.1442 33.478 58.4422 34.512 60.2682 34.82L62.4242 35.194C63.1282 35.304 63.5462 35.568 63.5462 35.942C63.5462 36.404 62.9522 36.668 62.0062 36.668C60.8842 36.668 60.0482 36.272 59.8942 35.348ZM77.0868 35.568C76.4488 35.81 75.8768 36.008 75.1948 36.008C74.1608 36.008 73.5228 35.502 73.5228 34.402V31.388H77.1528V28.33H73.5228V24.7H69.9588V28.33H67.8688V31.388H69.9588V34.512C69.9588 37.394 71.7188 39.286 74.6228 39.286C75.2388 39.286 76.3828 39.22 77.4828 38.758L77.0868 35.568ZM96.1952 27.318V24.04H85.0192V39H88.7372V33.72H95.1612V30.486H88.7372V27.318H96.1952ZM104.48 28.154C102.896 28.154 101.752 28.66 100.806 29.474V28.33H97.2198V39H100.806V32.884C101.642 32.07 102.742 31.608 104.48 31.542V28.154ZM116.569 33.302C116.569 30.068 114.193 28.044 111.003 28.044C107.703 28.044 105.437 30.42 105.437 33.654C105.437 36.91 107.769 39.286 111.267 39.286C113.775 39.286 115.755 37.988 116.393 35.898H112.785C112.455 36.294 111.993 36.47 111.201 36.47C109.749 36.47 109.023 35.612 108.781 34.512H116.503C116.569 34.094 116.569 33.72 116.569 33.302ZM111.091 30.684C112.301 30.684 113.071 31.212 113.247 32.466H108.825C109.111 31.388 109.837 30.684 111.091 30.684ZM129.159 33.302C129.159 30.068 126.783 28.044 123.593 28.044C120.293 28.044 118.027 30.42 118.027 33.654C118.027 36.91 120.359 39.286 123.857 39.286C126.365 39.286 128.345 37.988 128.983 35.898H125.375C125.045 36.294 124.583 36.47 123.791 36.47C122.339 36.47 121.613 35.612 121.371 34.512H129.093C129.159 34.094 129.159 33.72 129.159 33.302ZM123.681 30.684C124.891 30.684 125.661 31.212 125.837 32.466H121.415C121.701 31.388 122.427 30.684 123.681 30.684ZM150.589 39L147.069 33.764C148.653 32.84 149.599 31.256 149.599 29.298C149.599 26.064 147.113 24.04 143.395 24.04H136.861V39H140.579V34.666H143.395H143.417L146.255 39H150.589ZM140.579 27.318H143.329C144.759 27.318 145.881 28.088 145.881 29.298C145.881 30.53 144.759 31.322 143.329 31.322H140.579V27.318ZM161.837 33.302C161.837 30.068 159.461 28.044 156.271 28.044C152.971 28.044 150.705 30.42 150.705 33.654C150.705 36.91 153.037 39.286 156.535 39.286C159.043 39.286 161.023 37.988 161.661 35.898H158.053C157.723 36.294 157.261 36.47 156.469 36.47C155.017 36.47 154.291 35.612 154.049 34.512H161.771C161.837 34.094 161.837 33.72 161.837 33.302ZM156.359 30.684C157.569 30.684 158.339 31.212 158.515 32.466H154.093C154.379 31.388 155.105 30.684 156.359 30.684ZM166.156 35.348L162.988 35.326C163.23 38.164 165.496 39.286 168.246 39.286C171.04 39.286 173.24 38.186 173.24 35.722C173.24 33.83 171.898 32.862 169.918 32.488L167.938 32.158C167.08 32.004 166.816 31.674 166.816 31.3C166.816 30.904 167.234 30.574 168.158 30.574C169.148 30.574 169.918 30.926 169.984 31.718H173.13C172.976 28.902 170.688 28.044 168.158 28.044C165.32 28.044 163.406 29.364 163.406 31.608C163.406 33.478 164.704 34.512 166.53 34.82L168.686 35.194C169.39 35.304 169.808 35.568 169.808 35.942C169.808 36.404 169.214 36.668 168.268 36.668C167.146 36.668 166.31 36.272 166.156 35.348ZM180.426 28.044C177.038 28.044 174.552 30.442 174.552 33.654C174.552 36.91 177.038 39.286 180.426 39.286C183.792 39.286 186.278 36.91 186.278 33.654C186.278 30.442 183.792 28.044 180.426 28.044ZM180.426 36.316C178.908 36.316 177.896 35.194 177.896 33.676C177.896 32.202 178.908 31.036 180.426 31.036C181.922 31.036 182.934 32.202 182.934 33.676C182.934 35.194 181.922 36.316 180.426 36.316ZM195.447 28.33V35.018C194.831 35.7 194.149 36.074 193.489 36.074C192.323 36.074 191.531 35.348 191.531 33.83V28.33H187.967V34.38C187.967 37.416 189.815 39.286 192.521 39.286C193.665 39.286 194.589 38.912 195.447 38.252V39H199.011V28.33H195.447ZM208.7 28.154C207.116 28.154 205.972 28.66 205.026 29.474V28.33H201.44V39H205.026V32.884C205.862 32.07 206.962 31.608 208.7 31.542V28.154ZM215.51 36.272C213.97 36.272 213.068 35.106 213.068 33.654C213.068 32.202 213.97 31.058 215.51 31.058C216.588 31.058 217.424 31.74 217.6 32.708H220.966C220.702 29.958 218.436 28.044 215.488 28.044C212.144 28.044 209.658 30.42 209.658 33.654C209.658 36.91 212.144 39.286 215.488 39.286C218.436 39.286 220.702 37.372 220.966 34.622H217.6C217.424 35.59 216.588 36.272 215.51 36.272ZM233.551 33.302C233.551 30.068 231.175 28.044 227.985 28.044C224.685 28.044 222.419 30.42 222.419 33.654C222.419 36.91 224.751 39.286 228.249 39.286C230.757 39.286 232.737 37.988 233.375 35.898H229.767C229.437 36.294 228.975 36.47 228.183 36.47C226.731 36.47 226.005 35.612 225.763 34.512H233.485C233.551 34.094 233.551 33.72 233.551 33.302ZM228.073 30.684C229.283 30.684 230.053 31.212 230.229 32.466H225.807C226.093 31.388 226.819 30.684 228.073 30.684ZM237.871 35.348L234.703 35.326C234.945 38.164 237.211 39.286 239.961 39.286C242.755 39.286 244.955 38.186 244.955 35.722C244.955 33.83 243.613 32.862 241.633 32.488L239.653 32.158C238.795 32.004 238.531 31.674 238.531 31.3C238.531 30.904 238.949 30.574 239.873 30.574C240.863 30.574 241.633 30.926 241.699 31.718H244.845C244.691 28.902 242.403 28.044 239.873 28.044C237.035 28.044 235.121 29.364 235.121 31.608C235.121 33.478 236.419 34.512 238.245 34.82L240.401 35.194C241.105 35.304 241.523 35.568 241.523 35.942C241.523 36.404 240.929 36.668 239.983 36.668C238.861 36.668 238.025 36.272 237.871 35.348Z" fill="black"/>
<path d="M13 29V22L4 33H11V40L20 29H13Z" stroke="#7E73F9" stroke-width="2" stroke-linecap="round" stroke-linejoin="round"/>
</svg>
