<svg width="83" height="24" viewBox="0 0 83 24" fill="none" xmlns="http://www.w3.org/2000/svg">
<path d="M37.5234 4.23238C37.5234 4.39274 37.4597 4.54653 37.3463 4.65992C37.2329 4.77331 37.0791 4.83701 36.9187 4.83701C36.1169 4.83701 35.348 5.15552 34.7811 5.72246C34.2141 6.28941 33.8956 7.05836 33.8956 7.86014C33.8956 8.0205 33.8319 8.17429 33.7185 8.28768C33.6051 8.40107 33.4513 8.46477 33.291 8.46477C33.1306 8.46477 32.9768 8.40107 32.8634 8.28768C32.7501 8.17429 32.6864 8.0205 32.6864 7.86014C32.6864 7.05836 32.3678 6.28941 31.8009 5.72246C31.2339 5.15552 30.465 4.83701 29.6632 4.83701C29.5029 4.83701 29.3491 4.77331 29.2357 4.65992C29.1223 4.54653 29.0586 4.39274 29.0586 4.23238C29.0586 4.07203 29.1223 3.91824 29.2357 3.80485C29.3491 3.69146 29.5029 3.62776 29.6632 3.62776C30.465 3.62776 31.2339 3.30925 31.8009 2.7423C32.3678 2.17536 32.6864 1.40641 32.6864 0.604626C32.6864 0.444269 32.7501 0.29048 32.8634 0.177091C32.9768 0.0637016 33.1306 0 33.291 0C33.4513 0 33.6051 0.0637016 33.7185 0.177091C33.8319 0.29048 33.8956 0.444269 33.8956 0.604626C33.8956 1.40641 34.2141 2.17536 34.7811 2.7423C35.348 3.30925 36.1169 3.62776 36.9187 3.62776C37.0791 3.62776 37.2329 3.69146 37.3463 3.80485C37.4597 3.91824 37.5234 4.07203 37.5234 4.23238Z" fill="#010634"/>
<path d="M41.5103 8.4651C41.5103 8.59716 41.4578 8.72381 41.3644 8.81719C41.2711 8.91057 41.1444 8.96303 41.0124 8.96303C40.4841 8.96303 39.9775 9.17287 39.604 9.54639C39.2305 9.91991 39.0206 10.4265 39.0206 10.9547C39.0206 11.0868 38.9682 11.2134 38.8748 11.3068C38.7814 11.4002 38.6548 11.4527 38.5227 11.4527C38.3907 11.4527 38.264 11.4002 38.1706 11.3068C38.0773 11.2134 38.0248 11.0868 38.0248 10.9547C38.0248 10.4265 37.815 9.91991 37.4414 9.54639C37.0679 9.17287 36.5613 8.96303 36.0331 8.96303C35.901 8.96303 35.7744 8.91057 35.681 8.81719C35.5876 8.72381 35.5352 8.59716 35.5352 8.4651C35.5352 8.33305 35.5876 8.20639 35.681 8.11302C35.7744 8.01964 35.901 7.96718 36.0331 7.96718C36.5613 7.96718 37.0679 7.75734 37.4414 7.38382C37.815 7.0103 38.0248 6.5037 38.0248 5.97547C38.0248 5.84341 38.0773 5.71676 38.1706 5.62338C38.264 5.53 38.3907 5.47754 38.5227 5.47754C38.6548 5.47754 38.7814 5.53 38.8748 5.62338C38.9682 5.71676 39.0206 5.84341 39.0206 5.97547C39.0206 6.5037 39.2305 7.0103 39.604 7.38382C39.9775 7.75734 40.4841 7.96718 41.0124 7.96718C41.1444 7.96718 41.2711 8.01964 41.3644 8.11302C41.4578 8.20639 41.5103 8.33305 41.5103 8.4651Z" fill="#010634"/>
<path fill-rule="evenodd" clip-rule="evenodd" d="M51.9717 23.6184V5.24121H57.239V23.6184H51.9717ZM12.5269 11.4735C13.9734 10.2454 15.338 9.80874 17.1393 9.80874C20.2778 9.80874 22.4066 11.8829 22.4066 15.5946V23.6184H17.112V16.7409C17.112 15.1033 16.3478 14.5302 15.3107 14.5302C14.7649 14.5302 14.3009 14.7213 13.8369 15.2125V15.5946V23.6184H8.54234V16.7409C8.54234 15.1033 7.77816 14.5302 6.74108 14.5302C6.19524 14.5302 5.73128 14.7486 5.26732 15.2671V23.6184H0V10.1908H5.26732V10.9277C6.22253 10.1908 7.20504 9.80874 8.59692 9.80874C10.2617 9.80874 11.6263 10.3819 12.5269 11.4735ZM31.2559 9.80874C35.377 9.80874 38.461 12.2923 38.461 16.4134C38.461 16.6127 38.461 16.8165 38.4573 17.0211C38.4483 17.5306 38.0209 17.9144 37.5114 17.9144H28.7178C29.018 19.1698 29.8914 20.125 31.4743 20.125C32.4568 20.125 32.9753 19.9067 33.3301 19.47H38.2972C37.6149 22.1719 35.0495 24.0005 31.6926 24.0005C27.1622 24.0005 24.1601 21.0257 24.1601 16.8773C24.1601 12.7017 26.9984 9.80874 31.2559 9.80874ZM50.1218 9.97249C48.1295 9.97249 46.7922 10.6002 45.6187 11.5554V10.1908H42.3514C41.2468 10.1908 40.3514 11.0863 40.3514 12.1908V23.6184H45.6187V16.3588C46.5739 15.5673 47.8293 15.0215 50.1218 14.9942V9.97249ZM60.2155 10.1908V23.6184H65.5101V10.1908H60.2155ZM73.7367 10.9823C74.8011 10.1908 75.8928 9.80874 77.2301 9.80874C80.4778 9.80874 82.7703 11.8829 82.7703 15.5946V23.6184H77.4757V16.7409C77.4757 15.1033 76.6023 14.5302 75.5925 14.5302C74.9375 14.5302 74.3371 14.8031 73.7367 15.4036V23.6184H68.4694V10.1908H73.7367V10.9823ZM34.4014 14.3204C34.4962 14.2297 34.5495 14.1068 34.5495 13.9785C34.5495 13.8503 34.4962 13.7273 34.4014 13.6366C34.3066 13.5459 34.178 13.495 34.044 13.495C33.5077 13.495 32.9934 13.2912 32.6142 12.9285C32.235 12.5658 32.022 12.0739 32.022 11.5609C32.022 11.4327 31.9687 11.3097 31.8739 11.219C31.7791 11.1284 31.6506 11.0774 31.5165 11.0774C31.3824 11.0774 31.2539 11.1284 31.1591 11.219C31.0643 11.3097 31.011 11.4327 31.011 11.5609C31.011 12.0739 30.798 12.5658 30.4188 12.9285C30.0396 13.2912 29.5253 13.495 28.989 13.495C28.855 13.495 28.7264 13.5459 28.6316 13.6366C28.5368 13.7273 28.4835 13.8503 28.4835 13.9785C28.4835 14.1068 28.5368 14.2297 28.6316 14.3204C28.7264 14.4111 28.855 14.462 28.989 14.462C29.5253 14.462 30.0396 14.6658 30.4188 15.0285C30.798 15.3912 31.011 15.8832 31.011 16.3961C31.011 16.5243 31.0643 16.6473 31.1591 16.738C31.2539 16.8287 31.3824 16.8796 31.5165 16.8796C31.6506 16.8796 31.7791 16.8287 31.8739 16.738C31.9687 16.6473 32.022 16.5243 32.022 16.3961C32.022 15.8832 32.235 15.3912 32.6142 15.0285C32.9934 14.6658 33.5077 14.462 34.044 14.462C34.178 14.462 34.3066 14.4111 34.4014 14.3204Z" fill="#010634"/>
</svg>
